<?xml version="1.0" encoding="UTF-8" standalone="no"?>
<svg
   xmlns:dc="http://purl.org/dc/elements/1.1/"
   xmlns:cc="http://creativecommons.org/ns#"
   xmlns:rdf="http://www.w3.org/1999/02/22-rdf-syntax-ns#"
   xmlns:svg="http://www.w3.org/2000/svg"
   xmlns="http://www.w3.org/2000/svg"
   xmlns:xlink="http://www.w3.org/1999/xlink"
   xmlns:sodipodi="http://sodipodi.sourceforge.net/DTD/sodipodi-0.dtd"
   xmlns:inkscape="http://www.inkscape.org/namespaces/inkscape"
   id="generated_logo_1"
   viewBox="0 0 191.71628 80"
   version="1.1"
   sodipodi:docname="logo_transparent.svg"
   width="191.71628"
   height="80">
  <metadata
     id="metadata44">
    <rdf:RDF>
      <cc:Work
         rdf:about="">
        <dc:format>image/svg+xml</dc:format>
        <dc:type
           rdf:resource="http://purl.org/dc/dcmitype/StillImage" />
      </cc:Work>
    </rdf:RDF>
  </metadata>
  <defs
     id="defs42" />
  <sodipodi:namedview
     pagecolor="#ffffff"
     bordercolor="#666666"
     borderopacity="1"
     objecttolerance="10"
     gridtolerance="10"
     guidetolerance="10"
     inkscape:pageopacity="0"
     inkscape:pageshadow="2"
     inkscape:window-width="640"
     inkscape:window-height="480"
     id="namedview40" />
  <style
     type="text/css"
     class="styleimportlogofontmain"
     id="style2">@import url(&quot;https://fonts.googleapis.com/css2?family=Raleway:wght@300;400;500;700;900&quot;);#generated_logo_1 .maintypo { font-family: Raleway; font-weight: 400; }</style>
  <style
     type="text/css"
     class="styleimportlogofontsub"
     id="style4">@import url(&quot;https://fonts.googleapis.com/css2?family=Raleway:wght@300;400;500;700;900&quot;);#generated_logo_1 .subtypo { font-family: Raleway; font-weight: 500; }</style>
  <style
     type="text/css"
     class="styleimportlogopos"
     id="style6" />
  <g
     id="logo-elements"
     transform="translate(40,40)"
     transform-box="stroke-box">
    <g
       id="iconcontainer"
       transform-origin="center"
       transform-box="fill-box">
      <g
         class="iconBGGrpM"
         id="g10">
        <g
           class="iconBGGrp"
           transform="matrix(0.1,0,0,0.1,-50,-50)"
           id="g8" />
      </g>
      <g
         class="iconGrpM"
         transform="scale(0.8)"
         id="g26">
        <g
           class="iconGrp"
           transform="matrix(0.1,0,0,0.1,-50,-50)"
           id="g24">
          <g
             class="lg_icon"
             id="lg_icon_46"
             stroke="none"
             stroke-width="1"
             fill="none"
             fill-rule="evenodd">
            <g
               id="0046">
              <defs
                 id="defs13">
                <polygon
                   id="path-1"
                   points="0,0.0003 399.99957,0.0003 399.99957,797.023 0,797.023 " />
              </defs>
              <path
                 id="FRAME"
                 style="fill:none"
                 d="M 0,0 V 1000 H 1000 V 0 Z" />
              <g
                 id="Icon"
                 transform="translate(300.00043,100.9997)">
                <mask
                   id="mask-2"
                   fill="#ffffff">
                  <use
                     xlink:href="#path-1"
                     id="use16"
                     x="0"
                     y="0"
                     width="100%"
                     height="100%" />
                </mask>
                <g
                   id="Clip-2" />
                <path
                   d="m 349.32967,664.828 c 0,44.953 -36.571,81.526 -81.525,81.526 h -7.331 c -44.954,0 -81.526,-36.573 -81.526,-81.526 V 494.464 c 0,-37.845 25.923,-69.744 60.944,-78.888 v 87.988 c 0,13.992 11.341,25.335 25.334,25.335 13.992,0 25.334,-11.343 25.334,-25.335 v -87.37 c 33.912,9.876 58.77,41.215 58.77,78.27 z m -58.77,-300.601 v -14.09 l -0.126,-1.258 c -0.339,-3.408 -3.918,-34.204 -24.345,-65.63 -19.532,-30.051 -58.165,-65.872 -131.288,-65.872 -29.494,0 -51.408996,-7.593 -65.135996,-22.569 -20.661,-22.543 -18.477,-56.467 -18.336,-58.34 l 0.127,-1.114 -0.788,-110.2 C 50.568674,11.224 39.245674,0 25.338674,0 c -0.062,0 -0.124,0 -0.186,0 C 11.161674,0.101 -0.10032594,11.524 0,25.516 L 0.76867406,133.16 c -0.65,9.762 -2.06299996,58.753 31.08199994,95.378 23.725,26.216 58.362,39.509 102.949996,39.509 39.755,0 69.306,13.914 87.838,41.357 12.903,19.108 16.545,38.988 17.253,43.651 v 10.812 c -63.234,9.886 -111.614,64.59 -111.614,130.597 v 170.364 c 0,73.009 59.187,132.195 132.196,132.195 h 7.331 c 73.009,0 132.195,-59.186 132.195,-132.195 V 494.464 c 0,-65.249 -47.274,-119.45 -109.44,-130.237 z"
                   id="Fill-1"
                   fill="#cccccc" />
              </g>
            </g>
          </g>
        </g>
      </g>
    </g>
    <g
       id="textlines">
      <g
         id="einsg"
         transform="translate(-45)">
        <g
           aria-label="Jorge"
           id="eins"
           style="text-rendering:geometricPrecision">
          <path
             d="m 76.19,-8.115 q 0.735,0.525 1.925,0.91 1.225,0.385 2.8,0.385 1.82,0 2.94,-0.595 1.12,-0.63 1.715,-1.855 0.595,-1.26 0.805,-3.115 0.21,-1.855 0.21,-4.34 V -29.85 h 2.45 v 12.635 q 0,2.8 -0.28,5.11 -0.28,2.31 -1.085,3.99 -0.805,1.68 -2.415,2.59 -1.61,0.91 -4.27,0.91 -1.715,0 -3.045,-0.385 -1.33,-0.385 -2.45,-1.155 z"
             style="font-weight:400;font-size:35px;font-family:Raleway;letter-spacing:7.5;fill:#444444"
             id="path47" />
          <path
             d="m 109.47297,-4.65 q -1.995,0 -3.675,-0.735 -1.645,-0.77 -2.87,-2.065 -1.19,-1.33 -1.855,-3.01 -0.665,-1.715 -0.665,-3.605 0,-1.96 0.665,-3.64 0.665,-1.715 1.89,-3.01 1.225,-1.33 2.87,-2.065 1.68,-0.77 3.64,-0.77 1.96,0 3.605,0.77 1.645,0.735 2.87,2.065 1.225,1.295 1.89,3.01 0.665,1.68 0.665,3.64 0,1.89 -0.665,3.605 -0.665,1.68 -1.89,3.01 -1.19,1.295 -2.87,2.065 -1.645,0.735 -3.605,0.735 z m -6.65,-9.38 q 0,2.03 0.875,3.71 0.91,1.645 2.415,2.625 1.505,0.945 3.325,0.945 1.82,0 3.325,-0.98 1.505,-0.98 2.415,-2.66 0.91,-1.715 0.91,-3.745 0,-1.995 -0.91,-3.675 -0.91,-1.68 -2.415,-2.66 -1.505,-0.98 -3.325,-0.98 -1.82,0 -3.325,1.015 -1.505,1.015 -2.415,2.695 -0.875,1.645 -0.875,3.71 z"
             style="font-weight:400;font-size:35px;font-family:Raleway;letter-spacing:7.5;fill:#444444"
             id="path49" />
          <path
             d="m 139.11758,-21.135 q -2.38,0.07 -4.2,1.33 -1.785,1.26 -2.52,3.465 V -5 h -2.38 v -18.235 h 2.24 v 4.375 q 0.945,-1.925 2.485,-3.115 1.575,-1.19 3.325,-1.33 0.35,-0.035 0.595,-0.035 0.28,0 0.455,0.035 z"
             style="font-weight:400;font-size:35px;font-family:Raleway;letter-spacing:7.5;fill:#444444"
             id="path51" />
          <path
             d="m 156.24859,-4.755 q -1.855,0 -3.43,-0.77 -1.575,-0.77 -2.73,-2.065 -1.12,-1.33 -1.75,-3.01 -0.63,-1.68 -0.63,-3.465 0,-1.925 0.595,-3.605 0.63,-1.715 1.75,-3.045 1.155,-1.33 2.695,-2.065 1.54,-0.77 3.43,-0.77 2.345,0 4.06,1.19 1.75,1.19 2.94,2.94 v -3.815 h 2.135 V -4.93 q 0,2.52 -1.225,4.235 -1.19,1.75 -3.255,2.625 -2.03,0.875 -4.445,0.875 -3.115,0 -5.04,-1.12 -1.925,-1.12 -3.15,-3.01 l 1.47,-1.155 q 1.085,1.715 2.87,2.555 1.82,0.84 3.85,0.84 1.785,0 3.255,-0.665 1.505,-0.63 2.38,-1.925 0.91,-1.295 0.91,-3.255 v -3.605 q -1.05,1.715 -2.87,2.765 -1.82,1.015 -3.815,1.015 z m 0.665,-1.995 q 1.085,0 2.065,-0.385 1.015,-0.385 1.855,-1.015 0.84,-0.665 1.4,-1.47 0.56,-0.805 0.7,-1.645 V -16.9 q -0.525,-1.33 -1.505,-2.345 -0.98,-1.05 -2.24,-1.61 -1.225,-0.595 -2.555,-0.595 -1.54,0 -2.765,0.665 -1.19,0.63 -2.03,1.715 -0.805,1.05 -1.26,2.38 -0.455,1.33 -0.455,2.66 0,1.47 0.525,2.8 0.525,1.295 1.435,2.345 0.945,1.015 2.17,1.575 1.26,0.56 2.66,0.56 z"
             style="font-weight:400;font-size:35px;font-family:Raleway;letter-spacing:7.5;fill:#444444"
             id="path53" />
          <path
             d="m 185.91016,-4.65 q -1.96,0 -3.64,-0.735 -1.68,-0.77 -2.905,-2.065 -1.225,-1.33 -1.925,-3.045 -0.665,-1.715 -0.665,-3.675 0,-2.555 1.155,-4.69 1.19,-2.135 3.255,-3.395 2.065,-1.295 4.69,-1.295 2.695,0 4.69,1.295 2.03,1.295 3.185,3.43 1.155,2.1 1.155,4.62 0,0.28 0,0.56 0,0.245 -0.035,0.385 h -15.61 q 0.175,1.96 1.085,3.5 0.945,1.505 2.415,2.415 1.505,0.875 3.255,0.875 1.785,0 3.36,-0.91 1.61,-0.91 2.24,-2.38 l 2.065,0.56 q -0.56,1.295 -1.715,2.345 -1.155,1.05 -2.73,1.645 -1.54,0.56 -3.325,0.56 z m -6.72,-10.325 h 13.475 q -0.14,-1.995 -1.085,-3.5 -0.91,-1.505 -2.415,-2.345 -1.47,-0.875 -3.255,-0.875 -1.785,0 -3.255,0.875 -1.47,0.84 -2.415,2.38 -0.91,1.505 -1.05,3.465 z"
             style="font-weight:400;font-size:35px;font-family:Raleway;letter-spacing:7.5;fill:#444444"
             id="path55" />
        </g>
      </g>
      <g
         id="zweig"
         transform="translate(-42.5,6)">
        <g
           aria-label="Develop"
           id="zwei"
           style="dominant-baseline:text-before-edge;text-rendering:geometricPrecision">
          <path
             d="M 76.955,18.415672 V 2.0856723 h 5.658 q 2.622,0 4.37,1.104 1.771,1.081 2.645,2.944 0.874,1.84 0.874,4.0939997 0,2.484 -0.966,4.324 -0.966,1.84 -2.737,2.852 -1.771,1.012 -4.186,1.012 z m 11.454,-8.188 q 0,-1.8399997 -0.69,-3.2659997 -0.667,-1.426 -1.955,-2.231 -1.288,-0.805 -3.151,-0.805 H 79.025 V 16.575672 h 3.588 q 1.886,0 3.174,-0.828 1.288,-0.851 1.955,-2.277 0.667,-1.449 0.667,-3.243 z"
             style="font-weight:500;font-size:23px;font-family:Raleway;letter-spacing:5;dominant-baseline:text-before-edge;fill:#999999"
             id="path58" />
          <path
             d="m 103.43233,18.645672 q -1.357,0 -2.484,-0.483 -1.104002,-0.506 -1.932002,-1.357 -0.805,-0.874 -1.265,-2.001 -0.437,-1.127 -0.437,-2.392 0,-1.702 0.782,-3.1049997 0.782,-1.403 2.162002,-2.254 1.403,-0.851 3.197,-0.851 1.817,0 3.151,0.874 1.357,0.851 2.093,2.254 0.759,1.3799997 0.759,2.9899997 0,0.23 -0.023,0.46 0,0.207 -0.023,0.322 h -9.959002 q 0.092,1.173 0.644002,2.093 0.575,0.897 1.472,1.426 0.897,0.506 1.932,0.506 1.104,0 2.07,-0.552 0.989,-0.552 1.357,-1.449 l 1.748,0.483 q -0.391,0.874 -1.173,1.564 -0.759,0.69 -1.817,1.081 -1.035,0.391 -2.254,0.391 z m -4.048002,-6.946 h 8.188002 q -0.092,-1.173 -0.667,-2.0699997 -0.575,-0.897 -1.472,-1.403 -0.897,-0.506 -1.978,-0.506 -1.058,0 -1.955,0.506 -0.897,0.506 -1.472,1.403 -0.552002,0.8969997 -0.644002,2.0699997 z"
             style="font-weight:500;font-size:23px;font-family:Raleway;letter-spacing:5;dominant-baseline:text-before-edge;fill:#999999"
             id="path60" />
          <path
             d="m 119.8662,18.415672 -4.715,-12.0059997 h 2.116 l 3.772,10.0739997 3.772,-10.0739997 h 1.978 l -4.715,12.0059997 z"
             style="font-weight:500;font-size:23px;font-family:Raleway;letter-spacing:5;dominant-baseline:text-before-edge;fill:#999999"
             id="path62" />
          <path
             d="m 138.72334,18.645672 q -1.357,0 -2.484,-0.483 -1.104,-0.506 -1.932,-1.357 -0.805,-0.874 -1.265,-2.001 -0.437,-1.127 -0.437,-2.392 0,-1.702 0.782,-3.1049997 0.782,-1.403 2.162,-2.254 1.403,-0.851 3.197,-0.851 1.817,0 3.151,0.874 1.357,0.851 2.093,2.254 0.759,1.3799997 0.759,2.9899997 0,0.23 -0.023,0.46 0,0.207 -0.023,0.322 h -9.959 q 0.092,1.173 0.644,2.093 0.575,0.897 1.472,1.426 0.897,0.506 1.932,0.506 1.104,0 2.07,-0.552 0.989,-0.552 1.357,-1.449 l 1.748,0.483 q -0.391,0.874 -1.173,1.564 -0.759,0.69 -1.817,1.081 -1.035,0.391 -2.254,0.391 z m -4.048,-6.946 h 8.188 q -0.092,-1.173 -0.667,-2.0699997 -0.575,-0.897 -1.472,-1.403 -0.897,-0.506 -1.978,-0.506 -1.058,0 -1.955,0.506 -0.897,0.506 -1.472,1.403 -0.552,0.8969997 -0.644,2.0699997 z"
             style="font-weight:500;font-size:23px;font-family:Raleway;letter-spacing:5;dominant-baseline:text-before-edge;fill:#999999"
             id="path64" />
          <path
             d="m 152.06767,1.6256723 h 2.024 V 15.310672 q 0,0.989 0.276,1.219 0.276,0.23 0.667,0.23 0.483,0 0.92,-0.092 0.437,-0.115 0.736,-0.23 l 0.322,1.656 q -0.506,0.207 -1.196,0.345 -0.69,0.138 -1.219,0.138 -1.173,0 -1.863,-0.667 -0.667,-0.667 -0.667,-1.863 z"
             style="font-weight:500;font-size:23px;font-family:Raleway;letter-spacing:5;dominant-baseline:text-before-edge;fill:#999999"
             id="path66" />
          <path
             d="m 168.82427,18.645672 q -1.357,0 -2.461,-0.483 -1.104,-0.506 -1.909,-1.357 -0.805,-0.874 -1.242,-2.001 -0.437,-1.127 -0.437,-2.369 0,-1.265 0.437,-2.392 0.437,-1.1269997 1.242,-1.9779997 0.805,-0.874 1.909,-1.357 1.127,-0.506 2.461,-0.506 1.357,0 2.461,0.506 1.104,0.483 1.909,1.357 0.828,0.851 1.265,1.9779997 0.437,1.127 0.437,2.392 0,1.242 -0.437,2.369 -0.437,1.127 -1.242,2.001 -0.805,0.851 -1.932,1.357 -1.104,0.483 -2.461,0.483 z m -3.979,-6.187 q 0,1.242 0.529,2.254 0.552,1.012 1.449,1.61 0.897,0.575 2.001,0.575 1.104,0 2.001,-0.598 0.92,-0.598 1.449,-1.61 0.552,-1.035 0.552,-2.277 0,-1.242 -0.552,-2.254 -0.529,-1.0119997 -1.449,-1.6099997 -0.897,-0.598 -2.001,-0.598 -1.104,0 -2.001,0.621 -0.897,0.598 -1.449,1.6099997 -0.529,1.012 -0.529,2.277 z"
             style="font-weight:500;font-size:23px;font-family:Raleway;letter-spacing:5;dominant-baseline:text-before-edge;fill:#999999"
             id="path68" />
          <path
             d="m 188.83428,18.645672 q -1.472,0 -2.622,-0.736 -1.15,-0.736 -1.817,-1.863 v 7.268 h -2.024 V 6.4096723 h 1.794 v 2.254 q 0.713,-1.104 1.863,-1.771 1.15,-0.69 2.507,-0.69 1.242,0 2.277,0.506 1.035,0.506 1.794,1.38 0.759,0.874 1.173,2.0009997 0.437,1.104 0.437,2.323 0,1.702 -0.69,3.128 -0.667,1.426 -1.886,2.277 -1.219,0.828 -2.806,0.828 z m -0.621,-1.748 q 0.897,0 1.61,-0.368 0.736,-0.391 1.242,-1.012 0.529,-0.644 0.805,-1.449 0.276,-0.805 0.276,-1.656 0,-0.897 -0.322,-1.702 -0.299,-0.8049997 -0.874,-1.4259997 -0.552,-0.621 -1.311,-0.966 -0.736,-0.368 -1.61,-0.368 -0.552,0 -1.15,0.207 -0.575,0.207 -1.104,0.598 -0.529,0.368 -0.897,0.851 -0.368,0.4829997 -0.483,1.0349997 v 3.427 q 0.345,0.782 0.92,1.426 0.575,0.644 1.334,1.035 0.759,0.368 1.564,0.368 z"
             style="font-weight:500;font-size:23px;font-family:Raleway;letter-spacing:5;dominant-baseline:text-before-edge;fill:#999999"
             id="path70" />
        </g>
      </g>
    </g>
  </g>
</svg>
